<svg xmlns="http://www.w3.org/2000/svg" viewBox="0 0 64 64" width="64" height="64" role="img" aria-label="circle-text">
  <rect width="64" height="64" fill="#1b2030"/>
  <g transform="translate(32,32) scale(0.78) translate(-32,-32)">
  <circle cx="32.00" cy="21.00" r="2.5" fill="#00d4aa"/>
  <circle cx="40.60" cy="25.14" r="2.5" fill="#00d4aa"/>
  <circle cx="42.72" cy="34.45" r="2.5" fill="#00d4aa"/>
  <circle cx="36.77" cy="41.91" r="2.5" fill="#00d4aa"/>
  <circle cx="27.23" cy="41.91" r="2.5" fill="#00d4aa"/>
  <circle cx="21.28" cy="34.45" r="2.5" fill="#00d4aa"/>
  <circle cx="23.40" cy="25.14" r="2.5" fill="#00d4aa"/>
  <circle cx="32.00" cy="13.50" r="2.2" fill="#90caf9"/>
  <circle cx="41.25" cy="15.98" r="2.2" fill="#90caf9"/>
  <circle cx="48.02" cy="22.75" r="2.2" fill="#90caf9"/>
  <circle cx="50.50" cy="32.00" r="2.2" fill="#90caf9"/>
  <circle cx="48.02" cy="41.25" r="2.2" fill="#90caf9"/>
  <circle cx="41.25" cy="48.02" r="2.2" fill="#90caf9"/>
  <circle cx="32.00" cy="50.50" r="2.2" fill="#90caf9"/>
  <circle cx="22.75" cy="48.02" r="2.2" fill="#90caf9"/>
  <circle cx="15.98" cy="41.25" r="2.2" fill="#90caf9"/>
  <circle cx="13.50" cy="32.00" r="2.2" fill="#90caf9"/>
  <circle cx="15.98" cy="22.75" r="2.2" fill="#90caf9"/>
  <circle cx="22.75" cy="15.98" r="2.2" fill="#90caf9"/>
  <circle cx="32.00" cy="6.00" r="2.2" fill="#90caf9"/>
  <circle cx="41.39" cy="7.76" r="2.2" fill="#90caf9"/>
  <circle cx="49.52" cy="12.79" r="2.2" fill="#90caf9"/>
  <circle cx="55.27" cy="20.41" r="2.2" fill="#90caf9"/>
  <circle cx="57.89" cy="29.60" r="2.2" fill="#90caf9"/>
  <circle cx="57.01" cy="39.12" r="2.2" fill="#90caf9"/>
  <circle cx="52.75" cy="47.67" r="2.2" fill="#90caf9"/>
  <circle cx="45.69" cy="54.11" r="2.2" fill="#90caf9"/>
  <circle cx="36.78" cy="57.56" r="2.2" fill="#90caf9"/>
  <circle cx="27.22" cy="57.56" r="2.2" fill="#90caf9"/>
  <circle cx="18.31" cy="54.11" r="2.2" fill="#90caf9"/>
  <circle cx="11.25" cy="47.67" r="2.2" fill="#90caf9"/>
  <circle cx="6.99" cy="39.12" r="2.2" fill="#90caf9"/>
  <circle cx="6.11" cy="29.60" r="2.2" fill="#90caf9"/>
  <circle cx="8.73" cy="20.41" r="2.2" fill="#90caf9"/>
  <circle cx="14.48" cy="12.79" r="2.2" fill="#90caf9"/>
  <circle cx="22.61" cy="7.76" r="2.2" fill="#90caf9"/>
  </g>
</svg>
